<?xml version="1.0" encoding="UTF-8"?>
<svg width="178px" height="53px" viewBox="0 0 178 53" version="1.1" xmlns="http://www.w3.org/2000/svg" xmlns:xlink="http://www.w3.org/1999/xlink">
    <!-- Generator: sketchtool 51.2 (57519) - http://www.bohemiancoding.com/sketch -->
    <title>7E213ADB-5FD7-487B-822D-7AF46C7842B4</title>
    <desc>Created with sketchtool.</desc>
    <defs></defs>
    <g id="wireframes" stroke="none" stroke-width="1" fill="none" fill-rule="evenodd">
        <g id="Home" transform="translate(-632.000000, -25.000000)" fill="#000000">
            <g id="header" transform="translate(0.000000, 25.000000)">
                <g id="logo_ch" transform="translate(632.000000, 0.000000)">
                    <path d="M2.83867008,14.7323103 L2.83867008,0.410059676 L8.69033248,0.410059676 C12.1072123,0.410059676 14.1737084,2.43563512 14.1737084,5.36146633 L14.1737084,5.40238704 C14.1737084,8.71696505 11.5957033,10.4356351 8.38342711,10.4356351 L5.98956522,10.4356351 L5.98956522,14.7323103 L2.83867008,14.7323103 Z M5.98956522,7.63256607 L8.4857289,7.63256607 C10.0611765,7.63256607 10.9818926,6.6913896 10.9818926,5.46376812 L10.9818926,5.4228474 C10.9818926,4.01108269 9.9997954,3.25404945 8.42434783,3.25404945 L5.98956522,3.25404945 L5.98956522,7.63256607 Z M17.8702131,14.7323103 L17.8702131,0.410059676 L28.6732821,0.410059676 L28.6732821,3.21312873 L21.0006479,3.21312873 L21.0006479,6.11849957 L27.752566,6.11849957 L27.752566,8.92156863 L21.0006479,8.92156863 L21.0006479,11.9292413 L28.7755839,11.9292413 L28.7755839,14.7323103 L17.8702131,14.7323103 Z M31.7150553,14.7323103 L37.8531627,0.307757886 L40.7585336,0.307757886 L46.896641,14.7323103 L43.6025234,14.7323103 L42.2930604,11.5200341 L36.2367945,11.5200341 L34.9273315,14.7323103 L31.7150553,14.7323103 Z M37.3621141,8.7374254 L41.1677407,8.7374254 L39.2649274,4.09292413 L37.3621141,8.7374254 Z M56.2606648,14.9778346 C52.0458311,14.9778346 48.9153963,11.7246377 48.9153963,7.61210571 L48.9153963,7.571185 C48.9153963,3.49957374 51.98445,0.164535379 56.383427,0.164535379 C59.0841942,0.164535379 60.7005625,1.06479113 62.0304858,2.37425405 L60.0253707,4.68627451 C58.9205114,3.68371697 57.7951917,3.06990622 56.3629666,3.06990622 C53.9486444,3.06990622 52.2095139,5.07502131 52.2095139,7.53026428 L52.2095139,7.571185 C52.2095139,10.026428 53.9077237,12.0724638 56.3629666,12.0724638 C57.9997953,12.0724638 59.0023528,11.4177323 60.1276725,10.3947144 L62.1327876,12.4202899 C60.6596418,13.9957374 59.0228132,14.9778346 56.2606648,14.9778346 Z M72.56075,14.9778346 C68.1413127,14.9778346 64.9699572,11.683717 64.9699572,7.61210571 L64.9699572,7.571185 C64.9699572,3.49957374 68.1822334,0.164535379 72.6016708,0.164535379 C77.0211081,0.164535379 80.1924636,3.45865303 80.1924636,7.53026428 L80.1924636,7.571185 C80.1924636,11.6427962 76.9801874,14.9778346 72.56075,14.9778346 Z M72.6016708,12.0724638 C75.1387552,12.0724638 76.8983459,10.0673487 76.8983459,7.61210571 L76.8983459,7.571185 C76.8983459,5.11594203 75.0978344,3.06990622 72.56075,3.06990622 C70.0236656,3.06990622 68.2640748,5.07502131 68.2640748,7.53026428 L68.2640748,7.571185 C68.2640748,10.026428 70.0645864,12.0724638 72.6016708,12.0724638 Z M91.0705539,14.9778346 C86.8557202,14.9778346 83.7252854,11.7246377 83.7252854,7.61210571 L83.7252854,7.571185 C83.7252854,3.49957374 86.7943391,0.164535379 91.1933161,0.164535379 C93.8940833,0.164535379 95.5104516,1.06479113 96.8403749,2.37425405 L94.8352598,4.68627451 C93.7304005,3.68371697 92.6050808,3.06990622 91.1728557,3.06990622 C88.7585335,3.06990622 87.019403,5.07502131 87.019403,7.53026428 L87.019403,7.571185 C87.019403,10.026428 88.7176127,12.0724638 91.1728557,12.0724638 C92.8096844,12.0724638 93.8122419,11.4177323 94.9375616,10.3947144 L96.9426767,12.4202899 C95.4695309,13.9957374 93.8327023,14.9778346 91.0705539,14.9778346 Z M100.823325,14.7323103 L100.823325,0.410059676 L103.97422,0.410059676 L103.97422,6.67092924 L109.784961,0.410059676 L113.590588,0.410059676 L107.759386,6.48678602 L113.856573,14.7323103 L110.071406,14.7323103 L105.631509,8.63512361 L103.97422,10.3537937 L103.97422,14.7323103 L100.823325,14.7323103 Z M124.625541,14.7323103 L124.625541,0.410059676 L127.776436,0.410059676 L127.776436,11.8678602 L134.917101,11.8678602 L134.917101,14.7323103 L124.625541,14.7323103 Z M138.797749,14.7323103 L138.797749,0.410059676 L141.948644,0.410059676 L141.948644,14.7323103 L138.797749,14.7323103 Z M146.893231,14.7323103 L146.893231,0.410059676 L149.798601,0.410059676 L156.509599,9.228474 L156.509599,0.410059676 L159.619573,0.410059676 L159.619573,14.7323103 L156.939266,14.7323103 L150.003205,5.62745098 L150.003205,14.7323103 L146.893231,14.7323103 Z M164.420937,14.7323103 L164.420937,0.410059676 L167.571832,0.410059676 L167.571832,6.67092924 L173.382574,0.410059676 L177.188201,0.410059676 L171.356999,6.48678602 L177.454185,14.7323103 L173.669019,14.7323103 L169.229121,8.63512361 L167.571832,10.3537937 L167.571832,14.7323103 L164.420937,14.7323103 Z M5.12068201,33.0546974 C3.19195226,33.0546974 1.76927536,31.5365388 1.76927536,29.6173572 L1.76927536,29.5982609 C1.76927536,27.7077238 3.18240409,26.1418244 5.14932651,26.1418244 C6.36194373,26.1418244 7.08760443,26.5714919 7.75597613,27.2016709 L7.24037511,27.7554646 C6.67703325,27.2207673 6.04685422,26.8388406 5.13977835,26.8388406 C3.65981245,26.8388406 2.55222506,28.0419096 2.55222506,29.5791645 L2.55222506,29.5982609 C2.55222506,31.1450639 3.66936061,32.3576812 5.13977835,32.3576812 C6.05640239,32.3576812 6.65793691,32.004399 7.29766411,31.3933163 L7.7941688,31.8802728 C7.0971526,32.5868372 6.33329923,33.0546974 5.12068201,33.0546974 Z M24.4911854,33.0546974 C22.4574258,33.0546974 21.0920379,31.4601535 21.0920379,29.6173572 L21.0920379,29.5982609 C21.0920379,27.7554646 22.4765221,26.1418244 24.5102817,26.1418244 C26.5440413,26.1418244 27.9094292,27.7363683 27.9094292,29.5791645 L27.9094292,29.5982609 C27.9094292,31.4410571 26.524945,33.0546974 24.4911854,33.0546974 Z M24.5102817,32.3576812 C26.0379884,32.3576812 27.1264795,31.1355158 27.1264795,29.6173572 L27.1264795,29.5982609 C27.1264795,28.0801023 26.0188921,26.8388406 24.4911854,26.8388406 C22.9634786,26.8388406 21.8749876,28.061006 21.8749876,29.5791645 L21.8749876,29.5982609 C21.8749876,31.1164194 22.982575,32.3576812 24.5102817,32.3576812 Z M41.7801883,32.9401194 L41.7801883,26.2564024 L42.4867527,26.2564024 L46.6974944,31.6129241 L46.6974944,26.2564024 L47.4327032,26.2564024 L47.4327032,32.9401194 L46.8311687,32.9401194 L42.5153972,27.4594714 L42.5153972,32.9401194 L41.7801883,32.9401194 Z M63.8910156,33.035601 C62.8311691,33.035601 61.9622859,32.6823188 61.1602399,31.9662063 L61.6281,31.4124126 C62.3251162,32.0425916 62.9934879,32.3576812 63.9196601,32.3576812 C64.8171879,32.3576812 65.4091742,31.8802728 65.4091742,31.2214493 L65.4091742,31.2023529 C65.4091742,30.5817221 65.0749884,30.2284399 63.6714078,29.9324467 C62.1341529,29.5982609 61.4275885,29.1017562 61.4275885,28.003717 L61.4275885,27.9846206 C61.4275885,26.9343223 62.3537607,26.1609207 63.623667,26.1609207 C64.59758,26.1609207 65.2945962,26.4378176 65.9725161,26.9820631 L65.5333004,27.5645013 C64.9126695,27.0584484 64.2920387,26.8388406 63.6045706,26.8388406 C62.7356874,26.8388406 62.1818937,27.3162489 62.1818937,27.9177835 L62.1818937,27.9368798 C62.1818937,28.5670588 62.5256277,28.920341 63.9960455,29.2354305 C65.4855595,29.5600682 66.1730276,30.1043137 66.1730276,31.1259676 L66.1730276,31.1450639 C66.1730276,32.290844 65.2182109,33.035601 63.8910156,33.035601 Z M82.6599845,33.0451492 C81.0081516,33.0451492 79.8814679,32.0330435 79.8814679,30.1425064 L79.8814679,26.2564024 L80.6357731,26.2564024 L80.6357731,30.0947656 C80.6357731,31.5365388 81.3996264,32.348133 82.6790808,32.348133 C83.9107944,32.348133 84.6937441,31.603376 84.6937441,30.1425064 L84.6937441,26.2564024 L85.4480493,26.2564024 L85.4480493,30.0852174 C85.4480493,32.0330435 84.3309137,33.0451492 82.6599845,33.0451492 Z M99.5097717,32.9401194 L99.5097717,26.2564024 L100.264077,26.2564024 L100.264077,32.2431032 L104.026055,32.2431032 L104.026055,32.9401194 L99.5097717,32.9401194 Z M119.462713,32.9401194 L119.462713,26.9534186 L117.218894,26.9534186 L117.218894,26.2564024 L122.470386,26.2564024 L122.470386,26.9534186 L120.226567,26.9534186 L120.226567,32.9401194 L119.462713,32.9401194 Z M136.226567,32.9401194 L136.226567,26.2564024 L136.980872,26.2564024 L136.980872,32.9401194 L136.226567,32.9401194 Z M151.214462,32.9401194 L151.214462,26.2564024 L151.921026,26.2564024 L156.131768,31.6129241 L156.131768,26.2564024 L156.866977,26.2564024 L156.866977,32.9401194 L156.265442,32.9401194 L151.949671,27.4594714 L151.949671,32.9401194 L151.214462,32.9401194 Z M174.136883,33.0546974 C172.036286,33.0546974 170.737736,31.5269906 170.737736,29.6173572 L170.737736,29.5982609 C170.737736,27.7650128 172.084027,26.1418244 174.089142,26.1418244 C175.215826,26.1418244 175.912842,26.4664621 176.581214,27.0298039 L176.094258,27.6026939 C175.578656,27.1539301 175.005766,26.8388406 174.060498,26.8388406 C172.580532,26.8388406 171.520685,28.0896505 171.520685,29.5791645 L171.520685,29.5982609 C171.520685,31.1928048 172.542339,32.3767775 174.165528,32.3767775 C174.929381,32.3767775 175.635945,32.0807843 176.094258,31.7084058 L176.094258,30.0470247 L174.060498,30.0470247 L174.060498,29.3691049 L176.819918,29.3691049 L176.819918,32.0330435 C176.199287,32.5868372 175.263567,33.0546974 174.136883,33.0546974 Z M7.90588235,52.1598636 L6.59778346,52.1598636 C5.90076726,52.1598636 5.55703325,51.7588406 5.55703325,50.9758909 L5.55703325,43.4328389 L6.47365729,43.4328389 L6.47365729,50.7944757 C6.47365729,51.1382097 6.60733163,51.3196249 6.87468031,51.3196249 L7.74356351,51.3196249 C7.92497869,51.3196249 8.05865303,51.2336914 8.14458653,51.0809207 C8.24961637,50.9090537 8.31645354,50.3839045 8.35464621,49.495925 L9.22352941,49.7728218 C9.13759591,50.92815 8.9943734,51.6156181 8.79386189,51.8447741 C8.60289855,52.0548338 8.30690537,52.1598636 7.90588235,52.1598636 Z M0.725660699,43.7192839 L4.65950554,43.7192839 L4.65950554,44.5022336 C4.4112532,44.9796419 4.01023018,45.5811765 3.44688832,46.297289 L3.44688832,47.5385507 C3.91474851,47.4239727 4.37306053,47.3093947 4.82182438,47.1852685 L4.82182438,48.0827962 C4.36351236,48.2069224 3.90520034,48.3310486 3.44688832,48.4456266 L3.44688832,51.2145951 C3.44688832,51.8638704 3.0745098,52.1885081 2.33930094,52.1885081 L1.25080989,52.1885081 L1.03120205,51.3196249 C1.52770673,51.3578176 1.86189258,51.3864621 2.05285592,51.3864621 C2.37749361,51.3864621 2.54936061,51.2432396 2.54936061,50.9663427 L2.54936061,48.6556863 C1.91918159,48.7893606 1.26990622,48.9134868 0.611082694,49.0280648 L0.372378517,48.0732481 C1.10758738,47.9777664 1.83324808,47.8631884 2.54936061,47.7295141 L2.54936061,45.9917477 C2.95038363,45.5238875 3.31321398,45.0464791 3.61875533,44.5595226 L0.725660699,44.5595226 L0.725660699,43.7192839 Z M58.6366544,51.8638704 L58.6366544,52.2076044 L57.7582231,52.2076044 L57.7582231,47.7581586 C57.3762964,47.8536402 56.9752734,47.9491219 56.5742503,48.0446036 L56.2018718,47.2234612 C58.0637644,46.8415345 59.6296638,46.3259335 60.8900219,45.66711 L60.2789392,45.66711 L60.2789392,43.3946462 L61.186015,43.3946462 L61.186015,45.5047911 C61.7207124,45.1992498 62.1885726,44.8841603 62.5895956,44.5499744 C62.4081804,44.3972038 62.2267653,44.2444331 62.0358019,44.1012106 L62.6468846,43.5187724 C63.582605,44.2253367 64.3655547,44.9223529 65.01483,45.6289173 L64.3655547,46.2781927 C64.0504652,45.896266 63.6685385,45.5047911 63.2293228,45.1037681 C62.5895956,45.6575618 61.8543867,46.1349702 61.014148,46.5550895 L61.8161941,46.4214152 C61.9307721,46.6505712 62.0358019,46.9083717 62.1408318,47.1948167 L64.556518,47.1948167 L64.556518,47.9777664 L61.7016161,47.9777664 L61.7016161,48.5029156 L64.2032358,48.5029156 L64.2032358,49.2572208 L61.7016161,49.2572208 L61.7016161,49.78237 L64.2032358,49.78237 L64.2032358,50.5366752 L61.7016161,50.5366752 L61.7016161,51.0809207 L64.6806442,51.0809207 L64.6806442,51.8638704 L58.6366544,51.8638704 Z M58.6366544,49.2572208 L58.6366544,49.78237 L60.8040884,49.78237 L60.8040884,49.2572208 L58.6366544,49.2572208 Z M58.6366544,50.5366752 L58.6366544,51.0809207 L60.8040884,51.0809207 L60.8040884,50.5366752 L58.6366544,50.5366752 Z M59.5437303,47.1948167 L61.2528522,47.1948167 C61.1573705,46.984757 61.0427925,46.7842455 60.9282145,46.5932822 C60.4889988,46.81289 60.0211387,47.0134015 59.5437303,47.1948167 Z M60.8040884,47.9777664 L58.6366544,47.9777664 L58.6366544,48.5029156 L60.8040884,48.5029156 L60.8040884,47.9777664 Z M58.5698173,43.7670247 L59.2286408,44.3494629 C58.5889136,45.1133163 57.8059639,45.781688 56.8893399,46.354578 L56.3450943,45.6480136 C57.2235257,45.1133163 57.9682827,44.4926854 58.5698173,43.7670247 Z M112.575611,46.698312 L115.96521,46.698312 C116.07024,46.0967775 116.146625,45.437954 116.184818,44.7218414 L112.823863,44.7218414 L112.823863,43.8529582 L120.424204,43.8529582 L120.424204,44.7218414 L117.101442,44.7218414 C117.053701,45.4475021 116.977316,46.1063257 116.881834,46.698312 L120.701101,46.698312 L120.701101,47.5671952 L117.311502,47.5671952 C117.979873,49.2763171 119.211587,50.5939642 121.01619,51.5201364 L120.452849,52.2553453 C118.590956,51.2432396 117.311502,49.8110145 116.604937,47.9682182 C116.452166,48.5029156 116.280299,48.9516795 116.07024,49.3145098 C115.430513,50.4507417 114.342022,51.4342029 112.814315,52.2648934 L112.241425,51.5201364 C113.635457,50.7944757 114.628467,49.9446888 115.220453,48.9516795 C115.440061,48.5793009 115.621476,48.1209889 115.774247,47.5671952 L112.575611,47.5671952 L112.575611,46.698312 Z M168.27143,43.8338619 L176.817039,43.8338619 L176.817039,44.7218414 L172.74952,44.7218414 L172.74952,45.9726513 C173.914396,46.5359932 175.098369,47.1852685 176.301438,47.9109292 L175.757193,48.7320716 C174.554124,47.9491219 173.551566,47.3475874 172.74952,46.9370162 L172.74952,52.2076044 L171.842444,52.2076044 L171.842444,44.7218414 L168.27143,44.7218414 L168.27143,43.8338619 Z" id="Combined-Shape"></path>
                </g>
            </g>
        </g>
    </g>
</svg>